<svg width="15" height="15" viewBox="0 0 15 15" fill="none" xmlns="http://www.w3.org/2000/svg">
<path d="M11.4688 7.15625V5.625C11.4688 4.9375 10.9062 4.375 10.2188 4.375H8.125C7.89375 4.375 7.675 4.45 7.5 4.575C7.325 4.45 7.10625 4.375 6.875 4.375H4.78125C4.09375 4.375 3.53125 4.9375 3.53125 5.625V7.15625C3.28125 7.44375 3.125 7.81875 3.125 8.23125V10.625H4.0625V9.6875H10.9375V10.625H11.875V8.23125C11.875 7.81875 11.7188 7.44375 11.4688 7.15625ZM10.4688 6.5625H7.96875V5.3125H10.4688V6.5625ZM4.53125 5.3125H7.03125V6.5625H4.53125V5.3125ZM10.9375 8.75H4.0625V8.125C4.0625 7.78125 4.34375 7.5 4.6875 7.5H10.3125C10.6562 7.5 10.9375 7.78125 10.9375 8.125V8.75ZM12.5 2.5V12.5H2.5V2.5H12.5ZM12.5 1.25H2.5C1.8125 1.25 1.25 1.8125 1.25 2.5V12.5C1.25 13.1875 1.8125 13.75 2.5 13.75H12.5C13.1875 13.75 13.75 13.1875 13.75 12.5V2.5C13.75 1.8125 13.1875 1.25 12.5 1.25Z" fill="#9B9B9B"/>
</svg>
